<svg xmlns="http://www.w3.org/2000/svg" viewBox="0 0 400 400" width="100%" height="100%">
  <defs>
    <linearGradient id="bg-daniyar" x1="0%" y1="0%" x2="100%" y2="100%">
      <stop offset="0%" stop-color="#1f1f1f"/>
      <stop offset="100%" stop-color="#121212"/>
    </linearGradient>
    <linearGradient id="accent-daniyar" x1="0%" y1="0%" x2="100%" y2="100%">
      <stop offset="0%" stop-color="#f97316"/>
      <stop offset="100%" stop-color="#c2410c"/>
    </linearGradient>
  </defs>
  <rect width="400" height="400" rx="16" fill="url(#bg-daniyar)"/>
  <circle cx="200" cy="180" r="140" fill="#262626" opacity="0.5"/>
  <path d="M110 340 C110 270 150 250 200 250 C250 250 290 270 290 340 Z" fill="#2e2e2e"/>
  <rect x="180" y="195" width="40" height="55" rx="8" fill="#3a3a3a"/>
  <path d="M150 160 C150 110 170 90 200 90 C230 90 250 110 250 160 C250 200 230 215 200 215 C170 215 150 200 150 160 Z" fill="#3a3a3a"/>
  <!-- Modern Crop & Skin Fade Silhouette -->
  <path d="M148 130 C150 90 175 75 200 75 C225 75 250 90 252 130 C240 105 220 95 200 95 C180 95 160 105 148 130 Z" fill="url(#accent-daniyar)"/>
  <path d="M160 170 C160 200 178 215 200 215 C222 215 240 200 240 170 C230 182 215 188 200 188 C185 188 170 182 160 170 Z" fill="url(#accent-daniyar)"/>
  <rect x="185" y="295" width="30" height="18" rx="3" fill="none" stroke="#c2410c" stroke-width="2"/>
  <line x1="192" y1="295" x2="192" y2="290" stroke="#c2410c" stroke-width="2"/>
  <line x1="208" y1="295" x2="208" y2="290" stroke="#c2410c" stroke-width="2"/>
</svg>